<?xml version="1.0" ?><svg viewBox="0 0 64 64" xmlns="http://www.w3.org/2000/svg"><path d="M63.722 9.722c-.29-8.476-6.244-8.34-8.35-8.398-2.107-.058-28-.396-35.308-.223-7.31.174-16.29-1.143-18.74 2.407C-.404 6.007.03 47.31.096 53.007c.068 5.697 2.57 7.79 6.467 8.42s45.16.72 51.268.364 5.613-4.19 5.958-5.755c.345-1.564.224-37.837-.068-46.313zm-3.94 46.952c-.37-.235-5.945-10.955-6.547-10.97-.602-.018-1.904.77-1.61 1.004.296.233 6.834 11.504 6.454 11.643-.38.14-2.862-.003-3.086-.084-.224-.08-4.96-8.455-5.26-8.463-.302-.008-1.823.55-1.533.932.292.383 5.055 7.783 4.533 7.62-.523-.165-3.447-.62-3.447-.62s-2.713-5.32-3.014-5.33c-.3-.007-1.737.178-1.526.708.21.53 3.177 4.884 2.498 4.94-.68.056-3.534-.172-3.756-.328-.222-.156-1.936-3.5-2.16-3.507-.227-.006-1.347-.337-1.433.036-.086.372 2.61 3.594 1.323 3.858-1.287.264-20.193.493-26.518.47-6.324-.025-8.2-.227-9.366-1.683s-1.062-5.126-1.197-13.823C4.004 34.38 3.32 7.534 4.66 5.322c1.158-1.907 51.933-1.867 53.983.213 2.05 2.08.904 32.473.69 32.093-.216-.38-2.012-3.503-2.238-3.51-.226-.005-1.388 1.162-1.1 1.62.29.457 3.764 5.498 3.826 5.95.064.45.146 5.624-.076 5.468-.222-.156-3.74-6.323-4.04-6.33-.302-.01-1.32 1.387-1.104 1.767.215.38 5.203 7.862 5.334 8.54.133.678.218 5.776-.152 5.54zm-31.66-42.088c-2.6-1.27-5.686-1.287-7.898-.292-2.67 1.2-2.64 2.85-2.913 4.566-.273 1.716.05 22.633.794 25.65.744 3.02 5.556 3.3 9.6 1.39 4.044-1.913 19.103-12.74 19.015-17.687-.09-4.95-15.998-12.356-18.598-13.627zm1.246 25.59c-3.536 2.6-5.757 3.962-6.79 3.184-1.032-.778-2.172-24.79-.55-26.244 1.257-1.127 6.303.773 12.382 4.238 6.078 3.465 8.49 6.08 8.46 7.127s-9.966 9.094-13.502 11.695zM7.936 9.383c-.318.59-.333 9.283-.27 9.734.062.45 1.723.272 2.183-.015.46-.287.136-7.64.3-8.16.166-.52 3.02-.217 3.55-.352.53-.134.343-1.488-.027-1.723-.37-.234-5.282-.33-5.737.517z"/></svg>