<?xml version="1.0" ?><svg viewBox="0 0 64 64" xmlns="http://www.w3.org/2000/svg"><path d="M5.047 35.57c-.542.44 3.843 7.59 3.35 7.62-4.187.244-3.695 4.006-1.527 4.055 2.168.05 3.302-1.172 3.5-1.856.196-.685-2.908-7.23-3.056-7.573-.148-.342 3.893-1.905 4.386-1.76.493.148 1.922 3.86 1.922 3.86s-1.035.244-1.38.782c-.345.536-.1 2.637 1.28 2.784 1.38.147 2.317-1.075 2.514-1.905.197-.83-3.35-7.866-3.893-8.6-.543-.733-6.554 2.15-7.096 2.59zm39.175-9.234c.69-1.66.838-14.265.788-14.9-.05-.635-1.675-1.514-4.09-1.27-2.414.244-2.562.733-2.71 1.66-.148.93.05 10.7-.345 11.53-.394.83-4.78 4.006-5.223 4.055-.443.05-1.823-.83-2.12-1.074-.295-.244.1-1.172.1-1.172 1.035-.147 4.83-1.856 4.78-5.96-.05-4.104-1.478-8.158-6.603-8.207-5.126-.05-8.23 2.736-8.28 7.523-.05 4.788 5.52 6.937 5.52 6.937l.048.928-3.104 1.66s-3.4-2.148-3.646-2.442c-.246-.293-.246-7.132-.345-7.523-.1-.39-5.618-.39-6.06-.098-.444.293-.15 10.65.196 11.87.344 1.222 9.657 5.717 9.904 5.96.246.245.296 6.938.148 7.426-.148.488-5.52 5.96-5.864 6.986-.345 1.026 4.533 8.744 4.533 8.744s-.393 1.124-.738 1.856c-.345.733 1.774 2.93 2.66 3.078.888.147 4.14-1.954 4.14-1.954s.05 1.563 1.035 1.905c.986.342 6.948.05 7.342-.537.393-.586-.987-27.894-.543-29.41.443-1.512 7.785-5.91 8.475-7.57zM23.377 18.52c-.148-2.1.936-5.57 4.238-5.716 2.954-.13 5.322 1.514 5.223 5.52-.1 4.006-2.267 4.74-4.878 4.788-2.61.05-4.435-2.49-4.583-4.592zm4.928 36.932c-.148.098-1.626-3.175-1.626-3.175l1.23-1.27c.444.195.543 4.347.395 4.445zm4.977-15.046s-1.084-1.32-1.28-1.172c-.198.147-.543 1.22-.297 1.466.246.244 1.675 1.27 1.675 1.417 0 .147-.1 2.247-.1 2.247l-1.773-2.003s-.59 1.418-.246 1.81c.346.39 2.218 2.442 2.218 2.93s.788 14.02.345 14.314c-.444.293-3.35.342-3.35 0s.196-13.288-.15-13.923c-.344-.634-1.083-.585-1.527-.488-.443.098-5.076 3.468-5.026 4.25.05.782 3.745 7.72 3.745 7.963s-2.562 2.687-3.055 2.345c-.493-.342-1.232-1.026-.936-1.22.296-.196 1.035-1.467 1.035-1.71s-4.78-6.84-4.682-8.013c.1-1.172 6.11-6.302 6.06-6.742-.048-.44-.393-8.94-.393-8.94s-9.658-5.13-9.806-5.813c-.15-.684-.987-9.233-.395-9.184.59.05 1.528.098 1.528.244 0 .147.246 6.204.246 6.204s6.208 4.592 6.504 4.592c.296 0 4.238-1.417 5.42-1.368 1.183.05 3.45 1.075 3.893.733.443-.342 6.9-5.52 7.194-6.058.297-.537.494-11.724.494-11.724.493-.097 1.675-.292 1.97-.048.297.244-.048 11.43-.443 12.408-.393.977-8.622 7.425-8.87 8.207-.244.78.002 7.28.002 7.28zM12.34 10.802c1.577.342 2.71-.49 2.71-.49h1.035c.296 0 2.316-5.422 2.316-5.568s2.218.635 2.81.83c.59.196 1.38-3.467 1.232-3.81-.148-.34-3.71-1.865-4.09-1.758-.345.098-2.76 7.767-2.76 7.767S12.785 6.747 11.7 7.53s-.937 2.93.64 3.272zm35.282 26.135c-.59.05-1.577 4.2-1.577 4.2-4.287-2.197-5.47 2.297-4.534 3.176.937.88 3.845 1.417 4.732.928.887-.488 1.626-5.128 2.02-5.47.394-.342 6.06.635 6.06.635l-.69 3.86s-.393-.538-2.56 0c-2.17.536-1.184 2.98-.297 3.32.887.343 2.71-.048 3.203-.634.493-.585 2.02-7.62 1.725-8.06-.296-.438-7.49-2.002-8.08-1.953zM57.724 4.793c-.542-.44-3.495.2-3.893.537-.344.293 1.53 7.523 1.53 7.523s-2.218-.39-3.4.342c-1.184.733-1.233 3.615.935 3.908 2.168.293 3.844-1.514 4.09-1.76.246-.243-.74-5.324-.74-5.568 0-.244 2.07-.098 2.613-.293.54-.195-.592-4.25-1.134-4.69zM27.96 15.296c-2.365.244-2.71 3.273-2.562 3.566.148.293 1.084.342 1.38.195.296-.147.345-1.124.542-1.76.197-.634.936-.83 1.035-.976.098-.145-.038-1.06-.395-1.024zm-1.035 17.49c-.197.34-.345 3.565-.246 3.956.098.39 1.034.098 1.182.05s.05-3.81 0-3.958c-.05-.147-.836-.224-.937-.05z"/></svg>