<?xml version="1.0" ?><svg viewBox="0 0 64 64" xmlns="http://www.w3.org/2000/svg"><path d="M43.928 33.235c-.98-.588-1.497.325-1.463.66.044.44.133.702.91.878.775.176 1.285-1.098.553-1.538zm3.478-1.333c-.62-.373-.95.206-.928.418.028.28.084.446.577.558.492.11.815-.697.35-.976zm-3.337-3.666c-.837-.502-1.28.277-1.25.563.038.374.114.6.776.75.662.15 1.098-.94.473-1.314zm-3.534-1.858c-.98-.588-1.497.325-1.463.66.044.44.133.702.91.878.775.177 1.285-1.098.553-1.538zm4.412-3.56c-.98-.588-1.497.325-1.463.66.044.44.133.702.91.878.775.176 1.285-1.098.553-1.538zm-4.938.732c-.716-.43-1.096.238-1.07.482.03.322.096.515.664.643.568.13.942-.803.406-1.125zm-17.346 5.175c.99.224 1.642-1.403.708-1.964-1.25-.75-1.91.416-1.868.843.057.56.17.898 1.16 1.122zm1.46 4.333c-1.17-.703-1.788.388-1.748.788.053.525.16.84 1.086 1.05.928.21 1.538-1.312.663-1.838zm2.99-4.766c-.693-.416-1.06.23-1.035.466.03.31.093.498.642.622.55.124.91-.777.392-1.088zM19.98 33.89c-.86-.517-1.315.284-1.285.578.04.386.117.618.798.772.682.155 1.13-.965.487-1.35zm1.86 4.61c-.74-.445-1.13.246-1.106.5.034.33.1.53.688.664.587.132.973-.832.42-1.164zM31.87 4.105c1.84.417 3.05-2.606 1.315-3.648-2.32-1.394-3.55.77-3.47 1.563.104 1.043.314 1.668 2.155 2.085zm.57-2.8c.72.433.218 1.69-.548 1.517-.765-.173-.853-.433-.896-.867-.033-.33.478-1.23 1.443-.65zM58.85 49.08c-.797-1.1-6.185 1.033-6.363 1.055-.177.022-3.437-10.35-3.46-10.615-.02-.264.977-1.12 1.62-2.79.643-1.67 1.22-4.858.554-7.1-.664-2.24-6.895-18.086-7.405-18.57-.51-.482-3.792.023-6.142.814-2.35.79-6.497 2.176-6.52 2.725-.02.548 1.753 5.58 1.753 5.58s-2.262-1.47-4.68-2.35c-2.416-.88-6.344-1.763-6.673-1.494-1.397 1.143-7.495 19.34-7.517 20.9s2.483 6.373 2.44 6.615c-.045.243-5.522 15.253-5.522 15.253s-4.568-1.12-4.9-.22c-.333.9 1.796 3.406 4.834 4.263 3.038.857 7.34 1.187 7.583.44.245-.747-3.303-2.99-3.547-3.296-.244-.308 5.432-14.856 5.898-15.12.467-.264 4.857-2.154 5.39-2.66.53-.504 1.64-1.537 3.214-5.537s4.058-14.285 4.058-14.285 3.814 12.373 5.5 14.922c1.684 2.55 5.853 2.923 5.92 2.967.066.044 4.19 10.79 4.19 10.79-2.993 1.494-5.01 3.978-4.435 4.77s3.548.482 8.05-1.32c4.5-1.803 6.962-4.638 6.164-5.737zM26.28 39.3c-1.197 2.22-5.388 3.67-6.098 4.308-.71.637-6.54 15.91-6.63 16.702-.09.79 2.306 2.044 2.306 2.35 0 .31-3.15-.043-4.457-.614-1.31-.57-3.194-2.176-3.15-2.308.044-.132 3.038.68 3.215.55.177-.133 6.497-17.384 6.52-17.494.02-.11-1.642-4.77-1.753-5.89S19.957 24.464 21 22.62c.062-.113 2.017-.528 2.926-.287.91.242 1.863.725 2.64.77.775.043 2.615-.375 2.926-.287.31.088 1.84.55 1.818.637-.02.09-3.834 13.628-5.032 15.848zm5.233-16.987s-.243-1.23-2.35-.813c-2.105.418-2.04.57-2.86.44-.82-.132-1.928-.637-2.394-.68-.466-.045-2.55.307-2.55.24 0-.065 1.153-3.91 1.264-4 .208-.164 3.215.66 5.255 1.43 2.04.768 4.08 2 4.08 2.175 0 .175-.444 1.208-.444 1.208zm1.797-7.296c.11-.132 2.683-1.187 4.59-1.802s4.59-1.165 4.7-1.033c.112.132 1.82 4.99 1.753 5.23-.067.242-2.883-.198-3.57 0-.687.198-2.062.835-2.683.835-.62 0-1.33-.352-1.796-.308-.465.043-1.662.526-1.662.526-.155-.043-1.44-3.317-1.33-3.45zm12.417 24.745c-1.397-1.714-3.26-1.824-4.19-2.703-.932-.88-3.15-6.88-4.79-11.32-1.64-4.438-2.173-6.482-1.64-6.328 0 0 .73-.352 1.596-.264.865.088 1.375.396 1.973.198.6-.198 1.308-.68 1.973-.703.665-.022 2.35.286 2.97.264.622-.022 1.287-.374 1.287-.374s4.324 10.79 4.457 11.735c.133.945-.2 5.098-.865 6.285-.665 1.187-.843 2.55-.776 2.79.065.243 3.813 12 3.902 12.176.09.175.288.614.2.79-.09.176-.91.286-.91.286s-3.79-11.12-5.188-12.834zm6.32 14.02c-2.882 1.21-5.72 1.913-5.942 1.627-.222-.287 2.35-2.924 3.348-3.144.097-.02.532 1.23.687 1.297.155.066 1.463-.352 2.084-.637.622-.286.954-.57.844-.725-.11-.153-.333-.614-.266-.746.066-.132 4.213-2.198 4.767-1.538.554.658-2.64 2.658-5.52 3.867zM25.726 7.843c1.84.416 3.05-2.607 1.314-3.65-2.32-1.393-3.55.77-3.47 1.564.105 1.043.315 1.668 2.156 2.085zm.57-2.8c.72.432.218 1.69-.548 1.516-.765-.173-.853-.433-.896-.867-.033-.33.478-1.23 1.443-.65zm3.62 4.19c.097.955.29 1.527 1.974 1.91 1.684.38 2.79-2.386 1.203-3.34-2.125-1.275-3.25.705-3.176 1.43zm1.994.734c-.7-.16-.78-.397-.82-.793-.03-.302.437-1.126 1.32-.595.66.397.2 1.547-.5 1.388z"/></svg>