<?xml version="1.0" ?><!DOCTYPE svg  PUBLIC '-//W3C//DTD SVG 1.1//EN'  'http://www.w3.org/Graphics/SVG/1.1/DTD/svg11.dtd'><svg enable-background="new 0 0 512 512" id="Laag_1" version="1.1" viewBox="0 0 512 512" xml:space="preserve" xmlns="http://www.w3.org/2000/svg" xmlns:xlink="http://www.w3.org/1999/xlink"><path d="M382.1,447.7H130.9c-35.9,0-64.9-29.1-64.9-64.9  V131.6c0-35.9,29.1-64.9,64.9-64.9h251.2c35.9,0,64.9,29.1,64.9,64.9v251.2C447.1,418.7,418,447.7,382.1,447.7z" fill="none" stroke="#575756" stroke-miterlimit="10" stroke-width="7"/><circle cx="256.5" cy="257.2" fill="none" r="104.6" stroke="#575756" stroke-miterlimit="10" stroke-width="7"/><line fill="none" stroke="#575756" stroke-miterlimit="10" stroke-width="7" x1="312.5" x2="447.1" y1="168.9" y2="168.9"/><line fill="none" stroke="#575756" stroke-miterlimit="10" stroke-width="7" x1="66" x2="200.5" y1="168.9" y2="168.9"/><circle cx="256.5" cy="257.2" fill="none" r="70.8" stroke="#575756" stroke-miterlimit="10" stroke-width="7"/><line fill="none" stroke="#575756" stroke-miterlimit="10" stroke-width="7" x1="118.2" x2="118.2" y1="67.9" y2="168.9"/><line fill="none" stroke="#575756" stroke-miterlimit="10" stroke-width="7" x1="171.3" x2="171.3" y1="67.9" y2="168.9"/><path d="M414,139.2c0,5.8-4.7,10.5-10.5,10.5h-32  c-5.8,0-10.5-4.7-10.5-10.5v-32c0-5.8,4.7-10.5,10.5-10.5h32c5.8,0,10.5,4.7,10.5,10.5V139.2z" fill="none" stroke="#575756" stroke-miterlimit="10" stroke-width="7"/></svg>