<?xml version="1.0" ?><svg viewBox="0 0 64 64" xmlns="http://www.w3.org/2000/svg"><path d="M22.193 16.077c-2.63-.79-4.707-.103-6.438.55-1.73.654-1.938.482-2.32.447-.38-.034-1.21-2.305-1.245-2.58-.035-.275-.554-.344-.692-.275-.138.068-.242.274-.277 1.03-.034.758.52 1.584.416 1.584-.104 0-1.004-.413-1.488-1.17-.485-.757-.035-1.892-.035-2.202 0-.31-.588-.31-.83-.24-.243.068-.416.412-.486 1.237-.07.825.45 1.857.554 2.03.105.17-.414.55-.622.515-.208-.034-.796-.55-1.108-.998-.31-.447-.554-1.617-.554-1.617-.346-.447-1.108-.275-1.142-.103-.035.172.277 1.72 1.108 2.924.83 1.205 1.73.827 2.042.93.31.103.658.206 1.592 1.514.934 1.307 3.046 3.2 7.268 3.75 4.223.55 7.545-1.72 7.787-2.993.246-1.27-.896-3.54-3.527-4.333zm-3.392 6.09c-3.945.034-5.675-1.823-7.198-3.853 0 0 2.215.275 3.53-.138 1.315-.413 4.084-1.65 6.195-1.1 2.11.55 3.115 2.235 3.046 2.82-.07.585-1.626 2.236-5.572 2.27zm5.715-8.592c-.99.197-1.07.984-.475 1.338.594.354 1.544.315 1.782-.512.238-.825-.56-.973-1.307-.825zm2.8 8.385c-.45.585.036 1.617.555 1.72.52.103 1.7-.1 1.384-1.307-.242-.93-1.652-.784-1.938-.413zm-4.48 2.824c-.322.417.024 1.152.394 1.226.37.074 1.21-.072.986-.932-.173-.662-1.178-.56-1.382-.294zm4.515-7.743c-.45.586.035 1.618.554 1.72.52.104 1.7-.1 1.384-1.306-.242-.93-1.652-.785-1.938-.413zM7.155 20.38c-.32.418.025 1.153.395 1.227.37.074 1.21-.072.987-.932-.173-.662-1.178-.56-1.382-.294zM18.628 14.6c.52.31 1.35.275 1.557-.447.208-.72-.49-.85-1.142-.72-.865.17-.934.86-.415 1.168zm33.85 2.82c.83-.377 1.42-1.58 1.627-2.063.208-.482-.173-.516-.415-.516s-.52.72-1.42 1.513c-.9.79-2.042.368-2.145.378-.346.035-.346.69 0 .895.345.207 1.522.173 2.353-.206zM18.612 25.61c-.32.417.025 1.152.395 1.226.37.074 1.21-.072.987-.932-.174-.662-1.178-.56-1.382-.294zm-9.034-2.546c-.32.417.025 1.152.395 1.226.37.074 1.21-.072.987-.932-.173-.662-1.178-.56-1.382-.294zm3.842 1.926c-.32.417.025 1.152.395 1.226.37.074 1.21-.072.987-.932-.173-.66-1.178-.558-1.382-.294zm38.176-.825c-.32.417.025 1.152.395 1.226.37.075 1.212-.07.988-.93-.173-.663-1.178-.56-1.382-.295zm-4.5 2.167c-.32.417.026 1.152.396 1.226.37.074 1.21-.072.987-.932-.175-.662-1.18-.56-1.383-.294zm7.408-4.162c-.32.417.025 1.152.395 1.226.37.074 1.21-.072.986-.932-.174-.662-1.18-.56-1.382-.294zm-16.718 3.336c-.32.417.025 1.152.395 1.226.37.074 1.212-.072.988-.932-.173-.66-1.178-.558-1.382-.294zm4.257 1.205c-.32.418.025 1.153.395 1.227.37.074 1.21-.072.987-.932-.173-.662-1.178-.56-1.382-.294zm14.9-8.844c-.173 0-1.73 1.238-2.077 1.376-.346.138-1.108.103-1.28-.172-.174-.275.24-.206 1.21-1.135s2.388-3.13 2.388-3.303-.485-.275-.623-.275-.414.55-1.28 1.65c-.865 1.102-2.11 2.1-2.32 2.203-.207.103-1.556.378-1.833.344-.277-.034-1.073-.447-2.32-1.135-1.245-.69-4.43-1.652-7.267-.655-2.838.998-4.39 4.267-4.222 4.575.692 1.273 2.665 3.337 7.51 3.543 4.847.206 7.996-4.3 7.996-4.3s.934-.034 1.87-.206 2.456-1.582 2.733-1.858c.277-.275-.31-.654-.484-.654zm-12.15 5.85c-4.325-.14-5.364-1.86-5.917-2.856-.19-.343 2.907-3.612 5.71-3.543 2.804.07 6.542 2.89 6.542 2.89s-2.007 3.645-6.334 3.508zM63.934 5.48c.174-.55-.034-1.342-.172-1.204-.137.138-1.35 2.167-1.522 2.202-.173.034-.208-.275-.242-.757-.035-.482 0-.378.07-2.098.068-1.72-1.212-1.617-1.42-1.548-.208.07-.035.55.346 1.1.38.55-.554 1.687-.658 1.687-.104 0-.588-1.204-1.004-1.927-.415-.722-.934-.93-1.454-.688-.52.24-.173.653.208.86.38.205 1.35 2.304 1.35 2.923s-3.392 3.234-6.645 4.128c-3.254.895-11.354-.48-14.745-.137-3.392.344-6.368 3.82-6.368 3.82s-.208-.276-.9-1.687S27.35 9.3 24.167 9.06c-3.185-.24-6.716 1.445-10.938 1.032s-8.585-3.51-8.723-3.785C4.367 6.032 5.58 3.9 5.65 3.762c.068-.138-.45-.55-.693-.55-.242 0-1.35 2.34-1.765 2.064s-.208-.448.103-1.893 1.42-1.858 1.557-1.892c.138-.033.173-.033-.242-.343s-.934-.138-1.903.585S.354 4.14.042 5.242c-.31 1.1 1.21 1.857 1.21 1.857C-1.134 12.224.25 18.725 2.43 22.234s6.092 8.153 14.883 8.29c8.79.14 13.187-3.886 13.187-3.886s1.384 1.306 4.36 2.82c2.978 1.514 8.827 2.236 14.02 1.617 5.19-.62 10.382-6.743 10.382-6.743s.865 27.074.865 27.212c0 .138-1.177.206-1.765.31-.588.103.104 9.29.346 9.805.242.517 4.223.345 4.603.14.382-.207.036-9.427.036-9.702 0-.275-1.488-1.032-1.488-1.032L60.75 20.103s1.004-2.408 1.8-6.468c.796-4.06-.07-5.814.104-5.883.173-.07 1.107-1.72 1.28-2.27zM1.947 5.138c.173.585-.243.93-.416.93 0 0-.692-.724-.346-1.377s.9-1.03.9-1.03-.31.893-.138 1.478zm57.662 10.355c-.623 2.477-1.488 8.084-5.503 10.63s-6.022 4.094-12.53 3.062-8.133-2.752-8.583-3.268c-.45-.516-1.488-1.754-1.87-1.858-.38-.104-1.972.893-2.595 1.444-.623.55-7.303 3.784-12.772 2.752-5.47-1.032-9.103-3.68-11.18-7.224 0 0-3.183-8.497-1.556-12.73.06-.16 3.287 2.58 7.544 3.097s6.334.412 8.376 0c2.042-.414 4.88-1.102 7.614.068 2.734 1.17 3.46 4.988 3.773 5.367.31.378 2.077.55 2.284.07.21-.483 1.316-2.58 3.427-3.992 2.11-1.41 5.365-1.41 9.414-.826 4.05.585 7.304-.103 8.723-.378 1.42-.276 5.365-2.512 5.815-2.512.45 0 .243 3.818-.38 6.295zm2.492 37.36c.138.172.346 7.706.173 7.706s-2.388.137-2.492-.035c-.103-.172-.414-7.465-.207-7.672.15-.148 2.388-.172 2.527 0zM48.303 15.585c.466.324 1.212.288 1.398-.468.187-.755-.438-.89-1.024-.755-.777.18-.84.9-.373 1.223zm-9.692-.018c.595.354 1.545.315 1.783-.512s-.56-.975-1.307-.827c-.99.197-1.07.985-.475 1.34zm5.09-.723c.593.354 1.543.315 1.78-.512.24-.827-.56-.975-1.306-.827-.99.198-1.07.985-.475 1.34zm-10.362 7.254c-.45.585.035 1.617.554 1.72.52.103 1.7-.1 1.384-1.307-.242-.928-1.652-.784-1.938-.412zm.934-5.023c-.45.585.035 1.617.554 1.72.52.103 1.7-.1 1.384-1.307-.242-.93-1.652-.785-1.938-.413z"/></svg>