<?xml version="1.0" ?><svg viewBox="0 0 64 64" xmlns="http://www.w3.org/2000/svg"><path d="M17.514 21.72c.13.233 6.777 3.54 7.01 3.178.235-.362-5.99-4.39-6.257-4.29-.337.13-.882.88-.753 1.112zm11.14.336c.208.052 1.273-1.034 1.298-1.55.026-.517-10.612-9.035-11.217-8.734-.312.155-1.61 1.292-1.428 1.628.182.336 11.14 8.604 11.347 8.656zM16.84 35.44c.675.13 5.998-2.35 5.842-2.66-.156-.31-5.994 1.088-6.362 1.576-.156.206-.156.956.52 1.085zm12.723-18.268c.467-.388-3.246-7.003-3.583-7.08-.337-.078-1.116.275-1.143.568-.052.57 4.258 6.9 4.726 6.512zM25.2 30.79c.416-.077 1.04-1.5.962-1.86-.078-.362-15.283-5.068-15.683-4.884-.338.155-1.767 1.86-1.377 2.403.388.54 15.682 4.417 16.098 4.34zM47.17 10.712c-.208-.052-5.01 7.182-5.01 7.468 0 .18.856.62.986.49.13-.128 4.232-7.906 4.024-7.958zm-20.72 25.763c.207-.44-.65-1.705-1.04-1.68-.39.026-3.687 2.35-5.53 3.928-1.845 1.576-6.155 5.58-10.024 9.716S.994 62.74 1 62.856c.026.465 2.26 1.318 2.493 1.11s2.493-5.244 4.726-8.965c2.232-3.72 5.763-7.726 9.295-11.19 3.53-3.46 8.724-6.898 8.932-7.337zm21.317-13.49c.312.13 9.244-5.606 9.036-5.942-.207-.336-9.715 4.804-9.788 4.987-.104.26.442.827.753.956zm-10.75-5.4c.234-.257 1.74-11.86 1.48-11.86s-3.11 11.025-2.908 11.526c.104.258 1.194.594 1.428.336zm3.142 1.784c.364-.13 7.244-15.686 7.297-16.022.052-.336-1.558-1.06-2.13-1.06-.57 0-7.56 16.54-7.373 16.85.078.127 1.843.36 2.207.23zm-5.817-1.76C34.392 17.173 32.678.3 32.652.093c-.026-.207-2.815-.022-2.882.13-.104.232 2 17.648 2.207 17.906.208.26 2.312-.077 2.363-.517zm8.7 2.198c-.027.233 1.635.93 1.972.956.338.026 11.295-10.103 11.4-10.336.103-.233-1.325-1.55-1.61-1.628-.286-.077-11.74 10.8-11.763 11.008zm11.684 22.35c.286-.412-4.312-5.867-4.466-5.735-.182.155-.987.75-.96.956.025.206 5.14 5.193 5.426 4.78zm-8.335-3.54c-.183.053-1.767.905-1.767 1.19 0 .284 8.49 11.266 8.673 11.318.182.052 1.714-.904 1.765-1.163.053-.258-8.49-11.395-8.67-11.344zm3.972-4.133c.104.258 9.504 5.685 9.582 5.685.078 0 1.143-1.68 1.09-1.86-.05-.182-9.42-5.738-9.606-5.53-.235.258-1.17 1.447-1.066 1.705zm7.712-4.238c.104-.388-6.957-1.265-7.037-1.137-.13.207-.416.982-.13 1.19.286.206 7.063.335 7.167-.053zm4.673-8.656c-.156-.206-14.792 3.497-14.904 3.748-.104.233.493 1.68.597 1.886.104.207 14.307-3.747 14.49-3.902.18-.155-.027-1.524-.183-1.73zM41.273 42.005c-.052.233 3.713 7.054 3.92 6.796.21-.258-2.765-7.493-2.96-7.416-.13.052-.908.388-.96.62zM26.5 39.42c-.21.258-5.194 10.517-4.987 10.568.208.052 5.764-9.147 5.998-10.026.235-.878-.816-.785-1.01-.542zm8.334 4.006c-.104.258-.467 9.87-.39 9.974.078.103 1.09.233 1.298.233.208 0 .467-10.13.286-10.284s-1.145-.047-1.194.076zm2.674.516c-.078.18 2.7 11.886 2.7 11.964 0 .078 2.182-.155 2.338-.413.156-.258-3.028-12.196-3.168-12.196-.312 0-1.792.464-1.87.645zm-6.206-3.772c-.156.103-2.986 11.525-2.96 11.81.026.283 2.26.723 2.39.67.13-.05 2.544-11.782 2.544-11.91 0-.13-1.575-.835-1.974-.57zm7.48-2.714c.466-.13 3.22 1.395 3.738.853.52-.544-1.09-4.058-.78-4.394.313-.336 2.598.026 2.91-.62s-1.56-1.73-1.377-2.248c.182-.517 3.376-2.067 3.246-3.075-.13-1.008-2.832-.413-2.96-.75-.13-.335 2.154-3.927 1.09-4.805-1.065-.88-3.843 1.5-4.025 1.37-.182-.13.208-3.592-.597-3.67-.805-.076-2.493 3.386-2.804 3.283-.312-.102-3.116-3.565-3.79-2.738-.676.827.155 4.186-.053 4.315-.207.13-4.7 0-5.062.724-.364.724 2.207 3.774 2.363 4.058.157.284-2.476 4.416-2.154 4.754.467.49 2.622-.026 2.908.362.286.388-.234 3.41.753 3.798.987.388 2.7-1.654 3.168-1.576.467.078 1.143 2.222 1.766 2.17.622-.052 1.193-1.68 1.66-1.81zm-3.792-7.52c-.364-2.3 1.87-3.177 3.09-3.048 2.506.265 2.545 2.868 1.844 4.134-.702 1.267-4.57 1.215-4.934-1.085z"/></svg>