<svg xmlns="http://www.w3.org/2000/svg" version="1.1" xmlns:xlink="http://www.w3.org/1999/xlink" xmlns:svgjs="http://svgjs.com/svgjs" width="500" height="100" preserveAspectRatio="none" viewBox="0 0 500 100"><g mask="url(&quot;#SvgjsMask1089&quot;)" fill="none"><path d="M -46.603864163114686,58 C -26.6,53.6 13.4,33.2 53.396135836885314,36 C 93.4,38.8 113.4,71 153.39613583688532,72 C 193.4,73 213.4,42.4 253.39613583688532,41 C 293.4,39.6 313.4,64.2 353.3961358368853,65 C 393.4,65.8 413.4,47.2 453.3961358368853,45 C 493.4,42.8 544.08,57.2 553.3961358368853,54 C 562.72,50.8 510.68,34 500,29" stroke="rgba(194, 193, 51, 0.32)" stroke-width="2"></path><path d="M -37.84316499487621,45 C -17.84,49.4 22.16,69.4 62.15683500512379,67 C 102.16,64.6 122.16,33.2 162.15683500512378,33 C 202.16,32.8 222.16,67.4 262.1568350051238,66 C 302.16,64.6 322.16,26.6 362.1568350051238,26 C 402.16,25.4 422.16,61.2 462.1568350051238,63 C 502.16,64.8 554.59,35.8 562.1568350051238,35 C 569.73,34.2 512.43,54.2 500,59" stroke="rgba(194, 193, 51, 0.32)" stroke-width="2"></path></g><defs><mask id="SvgjsMask1089"><rect width="500" height="100" fill="#ffffff"></rect></mask></defs></svg>